# xmcd
#
# Track frame offsets: 
#        150
#        12852
#        29232
#        45257
#        62120
#        74880
#        90332
#        104902
#        119397
#        130612
#        144447
#        163407
#        178730
#        198022
#
# Disc length: 2832 seconds
#
# Revision: 0
# Processed by: cddbd v1.5.1PL0 Copyright (c) Steve Scherf et al.
# Submitted via: ExactAudioCopy v0.90b2
#
DISCID=cc0b0e0e
DTITLE=Rionegro and Solimões - O melhor de 2
DYEAR=2001
DGENRE=Country
TTITLE0=Bate o pé
TTITLE1=A gente se entrega
TTITLE2=meu dengo (Roberta Miranda - Part. especial Rionegro and Solimõe
TTITLE2=s)
TTITLE3=Depois de você
TTITLE4=Tô Doidão
TTITLE5=A Saude é quem manda
TTITLE6=Uai, Uai
TTITLE7=Chora, viola
TTITLE8=Rei da Festa
TTITLE9=Peão Apaixonado
TTITLE10=Laço da Paixão
TTITLE11=Samba SertchaNejo - é o Tchan ( Part. especial Rionegro and Sol
TTITLE11=imões)
TTITLE12=Frio da madrugada
TTITLE13=De São Paulo a Belém
EXTD=
EXTT0=
EXTT1=
EXTT2=
EXTT3=
EXTT4=
EXTT5=
EXTT6=
EXTT7=
EXTT8=
EXTT9=
EXTT10=
EXTT11=
EXTT12=
EXTT13=
PLAYORDER=
